<?xml version="1.0" standalone="no"?>
<!DOCTYPE svg PUBLIC "-//W3C//DTD SVG 20010904//EN"
 "http://www.w3.org/TR/2001/REC-SVG-20010904/DTD/svg10.dtd">
<svg version="1.0" xmlns="http://www.w3.org/2000/svg"
 width="700.000000pt" height="700.000000pt" viewBox="0 0 700.000000 700.000000"
 preserveAspectRatio="xMidYMid meet">
<metadata>
Created by potrace 1.14, written by Peter Selinger 2001-2017
</metadata>
<g transform="translate(0.000000,700.000000) scale(0.100000,-0.100000)"
fill="#000000" stroke="none">
<path d="M1213 5607 c-35 -9 -55 -24 -77 -58 -16 -25 -17 -128 -17 -1535 l0
-1509 -129 -95 c-71 -52 -145 -106 -163 -120 -337 -247 -768 -579 -778 -599
-6 -15 -13 -60 -15 -101 -4 -97 19 -151 78 -181 l40 -21 3347 0 c2115 0 3355
4 3371 10 33 13 76 57 88 90 5 15 10 58 10 94 0 98 -19 129 -133 213 -52 39
-141 105 -197 147 -81 61 -312 234 -553 413 -11 8 -60 45 -110 83 l-90 67 -5
1515 c-5 1653 -1 1539 -63 1575 -27 16 -169 17 -2303 19 -1251 0 -2286 -2
-2301 -7z m4394 -215 c12 -6 32 -26 44 -44 l23 -31 0 -1258 0 -1257 -28 -36
c-15 -20 -39 -39 -54 -43 -15 -4 -958 -7 -2097 -7 -2282 -1 -2109 -6 -2148 62
-19 33 -20 66 -19 1280 0 775 4 1256 10 1272 14 35 45 61 84 69 18 4 962 7
2098 6 1614 0 2070 -3 2087 -13z m-168 -3016 c38 -24 29 -101 -13 -111 -12 -3
-885 -4 -1940 -3 l-1919 3 -19 26 c-26 34 -11 75 32 86 39 10 3843 9 3859 -1z
m-1243 -334 c35 -24 33 -93 -4 -107 -8 -3 -321 -6 -694 -6 -529 0 -682 3 -698
13 -13 9 -20 23 -20 45 0 67 -41 63 718 63 378 0 692 -4 698 -8z"/>
<path d="M2040 4898 c-31 -11 -38 -58 -11 -79 19 -16 52 -17 359 -17 291 0
339 2 355 15 21 19 22 43 3 69 -14 18 -29 19 -350 19 -185 0 -345 -3 -356 -7z"/>
<path d="M4094 4889 c-16 -18 -18 -47 -4 -69 8 -13 60 -15 355 -17 343 -2 345
-2 365 20 11 12 18 27 15 35 -3 7 -5 17 -5 22 0 20 -62 24 -378 25 -293 0
-335 -2 -348 -16z"/>
<path d="M3510 4637 c-15 -15 -16 -25 -8 -47 5 -16 15 -30 21 -33 7 -2 211 -4
455 -3 427 1 444 2 458 20 18 25 18 37 0 62 -14 18 -31 19 -461 20 -430 1
-448 0 -465 -19z"/>
<path d="M4640 4652 c-21 -7 -30 -23 -30 -53 0 -42 33 -48 251 -46 209 2 229
7 229 52 0 46 -19 50 -234 51 -111 0 -208 -1 -216 -4z"/>
<path d="M1540 3947 c-21 -19 -20 -49 2 -72 6 -6 241 -11 661 -12 359 -1 665
-2 681 -2 24 -1 -65 -71 -520 -411 -658 -491 -664 -496 -664 -519 0 -10 8 -25
18 -34 17 -16 155 -17 1785 -17 1592 0 1767 2 1781 16 40 39 31 49 -218 234
-92 69 -231 173 -309 231 -78 58 -260 194 -405 303 -145 108 -260 196 -255
197 4 0 311 1 681 2 654 2 674 3 688 21 18 25 18 37 0 62 -14 19 -46 19 -1960
20 -1898 0 -1947 0 -1966 -19z m1888 -113 c33 -23 28 -83 -8 -101 -39 -20
-339 -18 -368 3 -28 19 -29 67 -2 94 18 18 33 20 188 20 137 0 172 -3 190 -16z
m523 3 c34 -25 31 -86 -5 -109 -6 -4 -88 -7 -184 -7 -170 -1 -173 -1 -197 23
-28 28 -26 62 6 89 18 15 44 17 193 17 119 -1 176 -4 187 -13z m-750 -243 c19
-17 25 -59 11 -80 -17 -26 -54 -31 -214 -30 -148 1 -168 3 -187 20 -24 22 -27
54 -7 81 17 24 76 31 249 28 107 -1 132 -4 148 -19z m511 4 c29 -23 31 -66 5
-92 -23 -23 -27 -23 -201 -22 -174 1 -178 2 -197 25 -25 31 -24 56 3 81 20 19
34 20 198 20 126 0 181 -4 192 -12z m520 -5 c21 -19 24 -62 4 -88 -13 -18 -29
-20 -191 -21 -160 -1 -178 1 -201 18 -28 22 -31 54 -8 86 15 21 20 22 196 22
155 0 184 -2 200 -17z m-796 -237 c20 -28 17 -70 -6 -91 -19 -17 -49 -18 -478
-19 -251 0 -469 3 -483 7 -52 13 -58 97 -9 115 11 4 232 8 491 7 454 0 471 -1
485 -19z m1118 4 c28 -28 24 -85 -6 -101 -27 -15 -916 -20 -961 -6 -15 5 -32
17 -37 27 -13 24 2 73 27 85 12 7 192 10 491 10 403 0 474 -3 486 -15z m-1596
-236 c31 -22 30 -78 -2 -99 -20 -14 -74 -15 -416 -13 -374 3 -392 4 -406 22
-20 28 -17 63 6 86 19 19 33 20 408 20 335 0 391 -2 410 -16z m952 -4 c23 -23
26 -58 6 -86 -14 -18 -32 -19 -409 -22 l-396 -3 -20 23 c-26 28 -27 62 -1 88
19 19 33 20 410 20 377 0 391 -1 410 -20z m950 -2 c27 -30 25 -62 -6 -87 -26
-20 -37 -21 -410 -21 -371 0 -385 1 -404 20 -11 11 -20 31 -20 45 0 14 9 34
20 45 19 19 33 20 410 20 388 0 389 0 410 -22z"/>
</g>
</svg>
